# xmcd
#
# Track frame offsets: 
#        150
#        13154
#        26665
#        39890
#        49535
#        67948
#        80648
#        91485
#        104834
#        113262
#
# Disc length: 1761 seconds
#
# Revision: 0
# Processed by: cddbd v1.5.1PL2 Copyright (c) Steve Scherf et al.
# Submitted via: ExactAudioCopy v0.95b4
#
DISCID=7406df0a
DTITLE=Various Artist - Country Christmas
DYEAR=2005
DGENRE=Country
TTITLE0=Alan Jackson/Honky Tonk Christmas
TTITLE1=Patty Loveless/Santa Train
TTITLE2=Brooks and Dunn/The Christmas Song
TTITLE3=Elvis Presley/Blue Christmas
TTITLE4=Kenny Chesney/Silver Bells
TTITLE5=Merle Haggard/Rudolph The Red-Nosed Reindeer
TTITLE6=Willie Nelson/Frosty The Snowman
TTITLE7=Johnny Cash/O Come All Ye Faithful
TTITLE8=George Jones/Joy To The World
TTITLE9=Alabama/The Christmas Spirit
EXTD=
EXTT0=
EXTT1=
EXTT2=
EXTT3=
EXTT4=
EXTT5=
EXTT6=
EXTT7=
EXTT8=
EXTT9=
PLAYORDER=
